<svg width="27" height="41" viewBox="0 0 27 41" fill="none" xmlns="http://www.w3.org/2000/svg">
<path d="M21.9141 0.8125H5.03906C3.92018 0.8125 2.84713 1.25697 2.05596 2.04814C1.26479 2.83931 0.820312 3.91237 0.820312 5.03125V35.9688C0.820312 37.0876 1.26479 38.1607 2.05596 38.9519C2.84713 39.743 3.92018 40.1875 5.03906 40.1875H21.9141C23.0329 40.1875 24.106 39.743 24.8972 38.9519C25.6883 38.1607 26.1328 37.0876 26.1328 35.9688V5.03125C26.1328 3.91237 25.6883 2.83931 24.8972 2.04814C24.106 1.25697 23.0329 0.8125 21.9141 0.8125ZM3.63281 9.25H23.3203V31.75H3.63281V9.25ZM5.03906 3.625H21.9141C22.287 3.625 22.6447 3.77316 22.9084 4.03688C23.1722 4.3006 23.3203 4.65829 23.3203 5.03125V6.4375H3.63281V5.03125C3.63281 4.65829 3.78097 4.3006 4.04469 4.03688C4.30842 3.77316 4.6661 3.625 5.03906 3.625ZM21.9141 37.375H5.03906C4.6661 37.375 4.30842 37.2268 4.04469 36.9631C3.78097 36.6994 3.63281 36.3417 3.63281 35.9688V34.5625H23.3203V35.9688C23.3203 36.3417 23.1722 36.6994 22.9084 36.9631C22.6447 37.2268 22.287 37.375 21.9141 37.375Z" fill="url(#paint0_radial_277_2565)"/>
<defs>
<radialGradient id="paint0_radial_277_2565" cx="0" cy="0" r="1" gradientUnits="userSpaceOnUse" gradientTransform="translate(-2.07019 -9.27212) rotate(68.5482) scale(46.3541 19.6124)">
<stop stop-color="#363636"/>
<stop offset="1" stop-color="#959595"/>
</radialGradient>
</defs>
</svg>
